<?xml version="1.0" encoding="utf-8"?>
<svg xmlns="http://www.w3.org/2000/svg" fill="none" height="400" viewBox="0 0 400 400" width="400">
<rect fill="#0055FF" height="400" width="400"/>
<g clip-path="url(#clip0_6265_1564)">
<path d="M232.734 165C217.417 165 203.665 172.988 203.665 187.647C203.665 204.529 227.957 205.682 227.957 214.082C227.957 217.624 223.84 220.835 216.923 220.835C207.041 220.835 199.629 216.388 199.629 216.388L196.5 231.212C196.5 231.212 204.982 235 216.346 235C233.145 235 246.321 226.682 246.321 211.694C246.321 193.906 221.946 192.753 221.946 184.929C221.946 182.129 225.322 179.082 232.239 179.082C240.063 179.082 246.486 182.294 246.486 182.294L249.615 167.965C249.533 167.965 242.533 165 232.734 165ZM92.4117 166.071L92 168.212C92 168.212 98.4232 169.365 104.27 171.753C111.764 174.471 112.258 176.035 113.575 180.894L127.327 233.847H145.774L174.019 166.071H155.655L137.456 212.188L130.045 173.071C129.386 168.624 125.928 166.071 121.645 166.071H92.4117ZM181.43 166.071L167.019 233.847H184.56L198.888 166.071H181.43ZM279.096 166.071C274.896 166.071 272.673 168.294 271.026 172.247L245.333 233.847H263.697L267.238 223.553H289.636L291.777 233.847H308L293.918 166.071H279.096ZM281.484 184.435L286.919 209.882H272.343L281.484 184.435Z" fill="#FEFCF9"/>
</g>
<defs>
<clipPath id="clip0_6265_1564">
<rect fill="white" height="70" transform="translate(92 165)" width="216"/>
</clipPath>
</defs>
</svg>